<svg width="32" height="32" xmlns="http://www.w3.org/2000/svg"><g fill="none" fill-rule="evenodd"><path d="M17.065 6c2.903 0 5.483 1.452 5.483 2.742s-.806 1.452-1.29 1.452-1.129-.323-1.774-.968-1.774-1.13-2.909-1.13c-.962 0-3.865.162-3.865 3.065 0 2.904 3.548 2.258 6.613 3.549 3.064 1.29 3.71 3.064 3.71 5.322 0 3.065-2.42 5.968-6.614 5.968C12.226 26 9 22.774 9 21.484s1.452-1.452 1.935-.968c.484.484 2.259 3.226 5.323 3.226 3.065 0 4.355-1.774 4.355-3.387s-1.13-2.464-4.597-3.168c-3.468-.703-6.37-2.155-6.37-5.542S13.193 6 17.064 6" fill="#004996"/><path d="M0 2.72s4.908 2.033 9.664.903C14.42 2.493 18.366.46 20.896.12 23.426-.22 26.306-.1 32 3.964c-6.574-2.377-10.649-1.81-13.23-.793-2.58 1.017-6.475 2.937-9.865 2.824C5.515 5.882 2.884 4.527 0 2.72" fill="#AFCA0B"/><path d="M0 28.72s4.908 2.033 9.664.903c4.756-1.13 8.702-3.163 11.232-3.502 2.53-.34 5.41-.22 11.104 3.843-6.574-2.377-10.649-1.81-13.23-.793-2.58 1.017-6.475 2.937-9.865 2.824-3.39-.113-6.021-1.468-8.905-3.276" fill="#40C0D8"/></g></svg>