<?xml version="1.0" encoding="UTF-8"?>
<svg width="32px" height="32px" viewBox="0 0 32 32" version="1.1" xmlns="http://www.w3.org/2000/svg" xmlns:xlink="http://www.w3.org/1999/xlink">
    <title>icons/marques/energie/semidao</title>
    <g id="icons/marques/energie/semidao" stroke="none" stroke-width="1" fill="none" fill-rule="evenodd">
        <path d="M17.0645161,6 C19.9677419,6 22.5483871,7.4516129 22.5483871,8.74193548 C22.5483871,10.0322581 21.7419355,10.1935484 21.2580645,10.1935484 C20.7741935,10.1935484 20.1290323,9.87096774 19.483871,9.22580645 C18.8387097,8.58064516 17.7096774,8.09677419 16.5751613,8.09677419 C15.6129032,8.09677419 12.7096774,8.25806452 12.7096774,11.1612903 C12.7096774,14.0645161 16.2580645,13.4193548 19.3225806,14.7096774 C22.3870968,16 23.0322581,17.7741935 23.0322581,20.0322581 C23.0322581,23.0967742 20.6129032,26 16.4193548,26 C12.2258065,26 9,22.7741935 9,21.483871 C9,20.1935484 10.4516129,20.0322581 10.9354839,20.516129 C11.4193548,21 13.1935484,23.7419355 16.2580645,23.7419355 C19.3225806,23.7419355 20.6129032,21.9677419 20.6129032,20.3548387 C20.6129032,18.7419355 19.483871,17.891129 16.016129,17.1874194 C12.5483871,16.483871 9.64516129,15.0322581 9.64516129,11.6451613 C9.64516129,8.25806452 13.1935484,6 17.0645161,6" id="Fill-1" fill="#004996"></path>
        <path d="M1.95399252e-14,2.71906327 C1.95399252e-14,2.71906327 4.9077411,4.75254479 9.66365759,3.62283284 C14.4195741,2.49312088 18.3660381,0.459639369 20.8957513,0.120725784 C23.4256038,-0.218187802 26.3066467,-0.0996810182 32,3.96445773 C25.4255341,1.58664001 21.3510857,2.1542073 18.7707644,3.17094806 C16.190443,4.18768881 12.2947266,6.10819913 8.90481336,5.99522794 C5.51490014,5.88225674 2.88397058,4.5266024 1.95399252e-14,2.71906327" id="Fill-3" fill="#AFCA0B"></path>
        <path d="M0,28.7190688 C0,28.7190688 4.9077411,30.7525504 9.66365759,29.6228384 C14.4195741,28.4931264 18.3660381,26.4596449 20.8957513,26.1207313 C23.4256038,25.7818178 26.3066467,25.9003245 32,29.9644633 C25.4255341,27.5866456 21.3510857,28.1542129 18.7707644,29.1709536 C16.190443,30.1876944 12.2947266,32.1082047 8.90481336,31.9952335 C5.51490014,31.8822623 2.88397058,30.526608 0,28.7190688" id="Fill-5" fill="#40C0D8"></path>
    </g>
</svg>